# xmcd
#
# Track frame offsets: 
#        150
#        14340
#        28320
#        46500
#        60172
#        79400
#        94560
#        111802
#        139262
#        159305
#
# Disc length: 2296 seconds
#
# Revision: 1
# Processed by: cddbd v1.5.2PL0 Copyright (c) Steve Scherf et al.
# Submitted via: ExactAudioCopy v1.1
#
DISCID=7208f60a
DTITLE=Betsy Pecanins - Recuento [CD 2)
DYEAR=1997
DGENRE=Blues
TTITLE0=Continuo Sufrimiento
TTITLE1=No Me Amenaces
TTITLE2=La Chancla
TTITLE3=La Tequilera
TTITLE4=A day In The Live
TTITLE5=Get Back
TTITLE6=You've Really Got A Hold On Me
TTITLE7=Hey Jude
TTITLE8=Robando La Luz Al Sol
TTITLE9=Blues De La Nube
EXTD=
EXTT0=
EXTT1=
EXTT2=
EXTT3=
EXTT4=
EXTT5=
EXTT6=
EXTT7=
EXTT8=
EXTT9=
PLAYORDER=
